<mxfile host="Electron" modified="2024-06-08T20:20:30.755Z" agent="Mozilla/5.0 (Windows NT 10.0; Win64; x64) AppleWebKit/537.36 (KHTML, like Gecko) draw.io/24.5.1 Chrome/124.0.6367.207 Electron/30.0.6 Safari/537.36" etag="VIg1GoPaYJ4E8Jgyo-HT" version="24.5.1" type="device">
  <diagram name="Page-1" id="yV6nf1l_BxtR493sC7Ss">
    <mxGraphModel dx="794" dy="511" grid="1" gridSize="10" guides="1" tooltips="1" connect="1" arrows="1" fold="1" page="1" pageScale="1" pageWidth="850" pageHeight="1100" math="0" shadow="0">
      <root>
        <mxCell id="0" />
        <mxCell id="1" parent="0" />
        <mxCell id="F_4pVcYIbb-JbRFeBcmw-1" value="" style="shape=umlLifeline;perimeter=lifelinePerimeter;whiteSpace=wrap;html=1;container=1;dropTarget=0;collapsible=0;recursiveResize=0;outlineConnect=0;portConstraint=eastwest;newEdgeStyle={&quot;curved&quot;:0,&quot;rounded&quot;:0};participant=umlBoundary;" vertex="1" parent="1">
          <mxGeometry x="140" y="40" width="50" height="600" as="geometry" />
        </mxCell>
        <mxCell id="F_4pVcYIbb-JbRFeBcmw-2" value="" style="shape=umlLifeline;perimeter=lifelinePerimeter;whiteSpace=wrap;html=1;container=1;dropTarget=0;collapsible=0;recursiveResize=0;outlineConnect=0;portConstraint=eastwest;newEdgeStyle={&quot;curved&quot;:0,&quot;rounded&quot;:0};participant=umlControl;" vertex="1" parent="1">
          <mxGeometry x="280" y="40" width="40" height="600" as="geometry" />
        </mxCell>
        <mxCell id="F_4pVcYIbb-JbRFeBcmw-3" value="" style="html=1;points=[[0,0,0,0,5],[0,1,0,0,-5],[1,0,0,0,5],[1,1,0,0,-5]];perimeter=orthogonalPerimeter;outlineConnect=0;targetShapes=umlLifeline;portConstraint=eastwest;newEdgeStyle={&quot;curved&quot;:0,&quot;rounded&quot;:0};" vertex="1" parent="F_4pVcYIbb-JbRFeBcmw-2">
          <mxGeometry x="15" y="90" width="10" height="480" as="geometry" />
        </mxCell>
        <mxCell id="F_4pVcYIbb-JbRFeBcmw-4" value="MovieService" style="shape=umlLifeline;perimeter=lifelinePerimeter;whiteSpace=wrap;html=1;container=1;dropTarget=0;collapsible=0;recursiveResize=0;outlineConnect=0;portConstraint=eastwest;newEdgeStyle={&quot;curved&quot;:0,&quot;rounded&quot;:0};" vertex="1" parent="1">
          <mxGeometry x="510" y="50" width="100" height="580" as="geometry" />
        </mxCell>
        <mxCell id="F_4pVcYIbb-JbRFeBcmw-30" value="" style="html=1;points=[[0,0,0,0,5],[0,1,0,0,-5],[1,0,0,0,5],[1,1,0,0,-5]];perimeter=orthogonalPerimeter;outlineConnect=0;targetShapes=umlLifeline;portConstraint=eastwest;newEdgeStyle={&quot;curved&quot;:0,&quot;rounded&quot;:0};" vertex="1" parent="F_4pVcYIbb-JbRFeBcmw-4">
          <mxGeometry x="45" y="300" width="10" height="80" as="geometry" />
        </mxCell>
        <mxCell id="F_4pVcYIbb-JbRFeBcmw-40" value="" style="html=1;points=[[0,0,0,0,5],[0,1,0,0,-5],[1,0,0,0,5],[1,1,0,0,-5]];perimeter=orthogonalPerimeter;outlineConnect=0;targetShapes=umlLifeline;portConstraint=eastwest;newEdgeStyle={&quot;curved&quot;:0,&quot;rounded&quot;:0};" vertex="1" parent="F_4pVcYIbb-JbRFeBcmw-4">
          <mxGeometry x="45" y="500" width="10" height="50" as="geometry" />
        </mxCell>
        <mxCell id="F_4pVcYIbb-JbRFeBcmw-6" value="request()" style="html=1;verticalAlign=bottom;startArrow=oval;startFill=1;endArrow=block;startSize=8;curved=0;rounded=0;" edge="1" parent="1" target="F_4pVcYIbb-JbRFeBcmw-1">
          <mxGeometry width="60" relative="1" as="geometry">
            <mxPoint x="40" y="110" as="sourcePoint" />
            <mxPoint x="160" y="110" as="targetPoint" />
          </mxGeometry>
        </mxCell>
        <mxCell id="F_4pVcYIbb-JbRFeBcmw-7" value="favorite()" style="html=1;verticalAlign=bottom;endArrow=block;curved=0;rounded=0;entryX=0;entryY=0;entryDx=0;entryDy=5;" edge="1" parent="1" source="F_4pVcYIbb-JbRFeBcmw-1" target="F_4pVcYIbb-JbRFeBcmw-3">
          <mxGeometry x="-0.0026" relative="1" as="geometry">
            <mxPoint x="285" y="135" as="sourcePoint" />
            <mxPoint as="offset" />
          </mxGeometry>
        </mxCell>
        <mxCell id="F_4pVcYIbb-JbRFeBcmw-8" value="return" style="html=1;verticalAlign=bottom;endArrow=open;dashed=1;endSize=8;curved=0;rounded=0;exitX=0;exitY=1;exitDx=0;exitDy=-5;" edge="1" parent="1" source="F_4pVcYIbb-JbRFeBcmw-3" target="F_4pVcYIbb-JbRFeBcmw-1">
          <mxGeometry relative="1" as="geometry">
            <mxPoint x="285" y="205" as="targetPoint" />
          </mxGeometry>
        </mxCell>
        <mxCell id="F_4pVcYIbb-JbRFeBcmw-9" value="RecommendForm" style="text;html=1;align=center;verticalAlign=middle;resizable=0;points=[];autosize=1;strokeColor=none;fillColor=none;" vertex="1" parent="1">
          <mxGeometry x="110" y="10" width="120" height="30" as="geometry" />
        </mxCell>
        <mxCell id="F_4pVcYIbb-JbRFeBcmw-10" value="RecommendController" style="text;html=1;align=center;verticalAlign=middle;resizable=0;points=[];autosize=1;strokeColor=none;fillColor=none;" vertex="1" parent="1">
          <mxGeometry x="230" y="10" width="140" height="30" as="geometry" />
        </mxCell>
        <mxCell id="F_4pVcYIbb-JbRFeBcmw-11" value="PythonScript" style="shape=umlLifeline;perimeter=lifelinePerimeter;whiteSpace=wrap;html=1;container=1;dropTarget=0;collapsible=0;recursiveResize=0;outlineConnect=0;portConstraint=eastwest;newEdgeStyle={&quot;curved&quot;:0,&quot;rounded&quot;:0};" vertex="1" parent="1">
          <mxGeometry x="770" y="50" width="100" height="550" as="geometry" />
        </mxCell>
        <mxCell id="F_4pVcYIbb-JbRFeBcmw-36" value="" style="html=1;points=[[0,0,0,0,5],[0,1,0,0,-5],[1,0,0,0,5],[1,1,0,0,-5]];perimeter=orthogonalPerimeter;outlineConnect=0;targetShapes=umlLifeline;portConstraint=eastwest;newEdgeStyle={&quot;curved&quot;:0,&quot;rounded&quot;:0};" vertex="1" parent="F_4pVcYIbb-JbRFeBcmw-11">
          <mxGeometry x="45" y="430" width="10" height="50" as="geometry" />
        </mxCell>
        <mxCell id="F_4pVcYIbb-JbRFeBcmw-13" value="FileSystem" style="shape=umlLifeline;perimeter=lifelinePerimeter;whiteSpace=wrap;html=1;container=1;dropTarget=0;collapsible=0;recursiveResize=0;outlineConnect=0;portConstraint=eastwest;newEdgeStyle={&quot;curved&quot;:0,&quot;rounded&quot;:0};" vertex="1" parent="1">
          <mxGeometry x="640" y="50" width="100" height="550" as="geometry" />
        </mxCell>
        <mxCell id="F_4pVcYIbb-JbRFeBcmw-33" value="" style="html=1;points=[[0,0,0,0,5],[0,1,0,0,-5],[1,0,0,0,5],[1,1,0,0,-5]];perimeter=orthogonalPerimeter;outlineConnect=0;targetShapes=umlLifeline;portConstraint=eastwest;newEdgeStyle={&quot;curved&quot;:0,&quot;rounded&quot;:0};" vertex="1" parent="F_4pVcYIbb-JbRFeBcmw-13">
          <mxGeometry x="45" y="410" width="10" height="70" as="geometry" />
        </mxCell>
        <mxCell id="F_4pVcYIbb-JbRFeBcmw-21" value="HttpSession" style="shape=umlLifeline;perimeter=lifelinePerimeter;whiteSpace=wrap;html=1;container=1;dropTarget=0;collapsible=0;recursiveResize=0;outlineConnect=0;portConstraint=eastwest;newEdgeStyle={&quot;curved&quot;:0,&quot;rounded&quot;:0};" vertex="1" parent="1">
          <mxGeometry x="390" y="50" width="100" height="180" as="geometry" />
        </mxCell>
        <mxCell id="F_4pVcYIbb-JbRFeBcmw-22" value="" style="html=1;points=[[0,0,0,0,5],[0,1,0,0,-5],[1,0,0,0,5],[1,1,0,0,-5]];perimeter=orthogonalPerimeter;outlineConnect=0;targetShapes=umlLifeline;portConstraint=eastwest;newEdgeStyle={&quot;curved&quot;:0,&quot;rounded&quot;:0};" vertex="1" parent="F_4pVcYIbb-JbRFeBcmw-21">
          <mxGeometry x="45" y="90" width="10" height="80" as="geometry" />
        </mxCell>
        <mxCell id="F_4pVcYIbb-JbRFeBcmw-23" value="getAttribute(loggedUser)" style="html=1;verticalAlign=bottom;endArrow=block;curved=0;rounded=0;entryX=0;entryY=0;entryDx=0;entryDy=5;" edge="1" target="F_4pVcYIbb-JbRFeBcmw-22" parent="1" source="F_4pVcYIbb-JbRFeBcmw-3">
          <mxGeometry relative="1" as="geometry">
            <mxPoint x="315" y="145" as="sourcePoint" />
          </mxGeometry>
        </mxCell>
        <mxCell id="F_4pVcYIbb-JbRFeBcmw-24" value="return" style="html=1;verticalAlign=bottom;endArrow=open;dashed=1;endSize=8;curved=0;rounded=0;exitX=0;exitY=1;exitDx=0;exitDy=-5;" edge="1" source="F_4pVcYIbb-JbRFeBcmw-22" parent="1" target="F_4pVcYIbb-JbRFeBcmw-3">
          <mxGeometry relative="1" as="geometry">
            <mxPoint x="315" y="215" as="targetPoint" />
          </mxGeometry>
        </mxCell>
        <mxCell id="F_4pVcYIbb-JbRFeBcmw-25" value="break" style="shape=umlFrame;whiteSpace=wrap;html=1;pointerEvents=0;" vertex="1" parent="1">
          <mxGeometry x="220" y="230" width="240" height="90" as="geometry" />
        </mxCell>
        <mxCell id="F_4pVcYIbb-JbRFeBcmw-26" value="[user havent&amp;nbsp;&lt;div&gt;login]&lt;/div&gt;" style="text;html=1;align=center;verticalAlign=middle;resizable=0;points=[];autosize=1;strokeColor=none;fillColor=none;" vertex="1" parent="1">
          <mxGeometry x="210" y="260" width="90" height="40" as="geometry" />
        </mxCell>
        <mxCell id="F_4pVcYIbb-JbRFeBcmw-28" value="" style="html=1;points=[[0,0,0,0,5],[0,1,0,0,-5],[1,0,0,0,5],[1,1,0,0,-5]];perimeter=orthogonalPerimeter;outlineConnect=0;targetShapes=umlLifeline;portConstraint=eastwest;newEdgeStyle={&quot;curved&quot;:0,&quot;rounded&quot;:0};" vertex="1" parent="1">
          <mxGeometry x="300" y="270" width="10" height="40" as="geometry" />
        </mxCell>
        <mxCell id="F_4pVcYIbb-JbRFeBcmw-29" value="redirect:/login" style="html=1;align=left;spacingLeft=2;endArrow=block;rounded=0;edgeStyle=orthogonalEdgeStyle;curved=0;rounded=0;" edge="1" target="F_4pVcYIbb-JbRFeBcmw-28" parent="1">
          <mxGeometry relative="1" as="geometry">
            <mxPoint x="305" y="250" as="sourcePoint" />
            <Array as="points">
              <mxPoint x="335" y="280" />
            </Array>
          </mxGeometry>
        </mxCell>
        <mxCell id="F_4pVcYIbb-JbRFeBcmw-31" value="getFavoritesByUserId(user.getId())" style="html=1;verticalAlign=bottom;endArrow=block;curved=0;rounded=0;entryX=0;entryY=0;entryDx=0;entryDy=5;" edge="1" target="F_4pVcYIbb-JbRFeBcmw-30" parent="1" source="F_4pVcYIbb-JbRFeBcmw-3">
          <mxGeometry relative="1" as="geometry">
            <mxPoint x="515" y="355" as="sourcePoint" />
          </mxGeometry>
        </mxCell>
        <mxCell id="F_4pVcYIbb-JbRFeBcmw-32" value="return" style="html=1;verticalAlign=bottom;endArrow=open;dashed=1;endSize=8;curved=0;rounded=0;exitX=0;exitY=1;exitDx=0;exitDy=-5;" edge="1" source="F_4pVcYIbb-JbRFeBcmw-30" parent="1" target="F_4pVcYIbb-JbRFeBcmw-3">
          <mxGeometry relative="1" as="geometry">
            <mxPoint x="515" y="425" as="targetPoint" />
          </mxGeometry>
        </mxCell>
        <mxCell id="F_4pVcYIbb-JbRFeBcmw-34" value="write(&quot;favorite.txt&quot;)" style="html=1;verticalAlign=bottom;endArrow=block;curved=0;rounded=0;entryX=0;entryY=0;entryDx=0;entryDy=5;" edge="1" target="F_4pVcYIbb-JbRFeBcmw-33" parent="1" source="F_4pVcYIbb-JbRFeBcmw-3">
          <mxGeometry relative="1" as="geometry">
            <mxPoint x="615" y="475" as="sourcePoint" />
          </mxGeometry>
        </mxCell>
        <mxCell id="F_4pVcYIbb-JbRFeBcmw-35" value="return" style="html=1;verticalAlign=bottom;endArrow=open;dashed=1;endSize=8;curved=0;rounded=0;exitX=0;exitY=1;exitDx=0;exitDy=-5;" edge="1" source="F_4pVcYIbb-JbRFeBcmw-33" parent="1" target="F_4pVcYIbb-JbRFeBcmw-2">
          <mxGeometry relative="1" as="geometry">
            <mxPoint x="615" y="545" as="targetPoint" />
          </mxGeometry>
        </mxCell>
        <mxCell id="F_4pVcYIbb-JbRFeBcmw-37" value="" style="html=1;points=[[0,0,0,0,5],[0,1,0,0,-5],[1,0,0,0,5],[1,1,0,0,-5]];perimeter=orthogonalPerimeter;outlineConnect=0;targetShapes=umlLifeline;portConstraint=eastwest;newEdgeStyle={&quot;curved&quot;:0,&quot;rounded&quot;:0};" vertex="1" parent="1">
          <mxGeometry x="695" y="175" width="10" height="120" as="geometry" />
        </mxCell>
        <mxCell id="F_4pVcYIbb-JbRFeBcmw-38" value="execute(recommend.py)" style="html=1;verticalAlign=bottom;endArrow=block;curved=0;rounded=0;" edge="1" parent="1">
          <mxGeometry relative="1" as="geometry">
            <mxPoint x="695" y="490" as="sourcePoint" />
            <mxPoint x="815" y="490" as="targetPoint" />
          </mxGeometry>
        </mxCell>
        <mxCell id="F_4pVcYIbb-JbRFeBcmw-39" value="return" style="html=1;verticalAlign=bottom;endArrow=open;dashed=1;endSize=8;curved=0;rounded=0;exitX=0;exitY=1;exitDx=0;exitDy=-5;" edge="1" parent="1">
          <mxGeometry relative="1" as="geometry">
            <mxPoint x="695" y="520" as="targetPoint" />
            <mxPoint x="815" y="520" as="sourcePoint" />
          </mxGeometry>
        </mxCell>
        <mxCell id="F_4pVcYIbb-JbRFeBcmw-41" value="getReferenceById(movieId)" style="html=1;verticalAlign=bottom;endArrow=block;curved=0;rounded=0;entryX=0;entryY=0;entryDx=0;entryDy=5;" edge="1" target="F_4pVcYIbb-JbRFeBcmw-40" parent="1" source="F_4pVcYIbb-JbRFeBcmw-3">
          <mxGeometry relative="1" as="geometry">
            <mxPoint x="485" y="555" as="sourcePoint" />
          </mxGeometry>
        </mxCell>
        <mxCell id="F_4pVcYIbb-JbRFeBcmw-42" value="return" style="html=1;verticalAlign=bottom;endArrow=open;dashed=1;endSize=8;curved=0;rounded=0;exitX=-0.1;exitY=0.76;exitDx=0;exitDy=0;exitPerimeter=0;" edge="1" source="F_4pVcYIbb-JbRFeBcmw-40" parent="1" target="F_4pVcYIbb-JbRFeBcmw-3">
          <mxGeometry relative="1" as="geometry">
            <mxPoint x="310" y="590" as="targetPoint" />
            <mxPoint x="560" y="590" as="sourcePoint" />
          </mxGeometry>
        </mxCell>
      </root>
    </mxGraphModel>
  </diagram>
</mxfile>
